<svg viewBox="0 0 200 200" xmlns="http://www.w3.org/2000/svg">
	<path style="fill: rgb(239, 239, 239);" d="M24.9,-39.9C34.3,-32.7,45.3,-29.2,54.5,-21.3C63.7,-13.4,71,-1.1,72.5,12.6C74,26.3,69.6,41.4,61,54.8C52.4,68.3,39.7,80.1,26.5,78.5C13.4,77,-0.3,62.1,-9.9,51.3C-19.6,40.5,-25.3,33.6,-38.5,28C-51.8,22.4,-72.6,17.9,-80,7.7C-87.5,-2.5,-81.5,-18.5,-72.9,-31.6C-64.2,-44.6,-52.9,-54.7,-40.3,-60.4C-27.7,-66.1,-13.9,-67.4,-3.1,-62.7C7.8,-57.9,15.5,-47.1,24.9,-39.9Z" transform="translate(100 100) rotate(180)" />
</svg>
