<?xml version="1.0" standalone="no"?>
<!DOCTYPE svg PUBLIC "-//W3C//DTD SVG 20010904//EN"
 "http://www.w3.org/TR/2001/REC-SVG-20010904/DTD/svg10.dtd">
<svg version="1.0" xmlns="http://www.w3.org/2000/svg"
 width="200.000000pt" height="272.000000pt" viewBox="0 0 200.000000 272.000000"
 preserveAspectRatio="xMidYMid meet">

<g transform="translate(0.000000,272.000000) scale(0.100000,-0.100000)"
fill="#000000" stroke="none">
<path d="M492 2505 c-43 -20 -90 -53 -117 -80 -158 -163 -164 -477 -12 -629
75 -74 170 -85 221 -25 32 38 40 82 33 182 -8 93 -21 115 -55 91 -12 -8 -22
-20 -22 -26 0 -7 5 -6 15 2 8 6 19 9 24 5 15 -9 31 -74 31 -128 0 -94 -42
-147 -115 -147 l-40 1 30 26 c34 30 75 82 75 96 0 6 -13 -9 -30 -31 -54 -75
-117 -95 -131 -42 -4 14 -7 19 -8 13 -2 -27 -19 -12 -25 22 -4 21 -13 35 -21
35 -17 0 -21 55 -5 65 6 3 10 11 10 17 0 6 -9 3 -20 -7 -34 -31 -22 -5 21 43
50 58 73 71 123 72 38 0 38 0 32 -32 -17 -83 -18 -108 -7 -108 6 0 11 2 11 4
0 2 7 20 16 41 8 20 10 34 5 30 -19 -11 -12 34 13 90 31 66 77 120 115 133 40
14 47 3 14 -24 -24 -19 -26 -24 -16 -47 7 -14 29 -45 50 -67 l37 -42 -16 -61
c-19 -73 -16 -87 4 -25 l15 43 13 -25 c8 -14 17 -41 21 -60 l7 -35 0 40 c1 22
-5 51 -13 65 -8 14 -14 46 -15 73 0 43 -13 63 -22 35 -7 -20 -26 0 -44 48 -15
39 -15 47 -3 55 20 12 23 12 53 -12 14 -11 27 -30 27 -42 1 -20 2 -21 6 -2 9
37 44 65 82 66 l36 1 -29 12 c-32 15 -59 11 -77 -10 -10 -12 -15 -10 -30 15
-10 17 -52 55 -94 86 -88 65 -109 94 -110 146 0 35 -3 39 -25 39 -44 1 3 21
71 30 119 17 239 -19 341 -101 85 -68 121 -117 114 -153 -10 -47 -33 -66 -81
-66 -30 0 -45 5 -49 16 -8 22 -9 21 26 33 41 15 33 21 -19 14 -35 -5 -40 -8
-32 -22 5 -9 13 -28 19 -43 9 -26 13 -27 47 -22 76 11 109 51 99 120 -5 42 -4
44 19 44 14 0 25 -6 25 -13 0 -21 40 -90 73 -125 17 -18 48 -38 69 -44 47 -14
48 -25 4 -43 -31 -13 -34 -18 -39 -71 -3 -31 -8 -58 -11 -61 -3 -3 -17 4 -32
16 -28 22 -64 28 -64 11 0 -5 10 -10 23 -10 36 -1 66 -31 68 -70 1 -19 13 -58
25 -87 13 -28 24 -59 24 -67 0 -9 4 -16 8 -16 5 0 23 -46 41 -102 31 -101 50
-212 51 -295 0 -40 -3 -44 -57 -81 -118 -80 -203 -190 -219 -282 -4 -28 1 -22
30 35 50 100 115 176 190 226 l66 43 0 96 c0 52 -5 113 -10 135 -5 22 -7 41
-5 43 2 2 14 -3 27 -11 39 -26 145 -57 193 -57 64 0 56 16 -12 23 -65 7 -159
36 -196 60 -18 11 -33 41 -53 99 -15 46 -35 96 -45 111 -15 25 -15 34 -4 75 7
26 22 69 34 95 26 60 26 59 -1 55 -20 -3 -23 -9 -24 -48 -1 -25 -7 -58 -14
-75 l-12 -30 -10 25 c-12 31 -1 135 18 176 8 17 26 36 39 42 29 13 26 21 55
-138 22 -122 53 -229 78 -270 31 -50 86 -100 118 -106 75 -14 139 62 210 251
24 63 61 143 83 177 22 34 38 64 36 67 -16 16 -200 -164 -235 -229 -6 -12 -14
-20 -16 -17 -2 2 -8 98 -13 214 -8 184 -12 216 -32 268 -36 89 -111 131 -230
128 -66 -2 -113 -20 -182 -70 -69 -51 -104 -48 -173 17 -92 87 -203 130 -339
130 -71 0 -89 -4 -153 -35z m47 -84 c1 -32 64 -107 96 -115 26 -7 51 -49 39
-67 -9 -16 -40 -10 -59 11 -10 11 -23 20 -28 20 -6 0 0 -11 13 -25 25 -27 25
-27 -5 -43 -12 -6 -34 -36 -50 -66 -29 -56 -39 -65 -50 -46 -11 17 -59 11 -92
-12 -17 -13 -50 -38 -72 -56 -23 -19 -41 -29 -41 -24 0 12 84 83 120 102 14 8
39 17 55 21 l30 7 -28 1 c-36 1 -80 -21 -139 -71 -27 -21 -48 -35 -48 -29 0
15 79 80 130 106 25 13 38 24 29 25 -18 0 -104 -52 -141 -88 -26 -24 -28 -24
-28 -6 0 13 18 30 56 53 30 18 53 35 50 38 -3 3 -26 -9 -52 -26 -60 -39 -68
-39 -60 2 7 33 37 63 71 70 11 2 3 3 -19 0 l-39 -4 7 32 c8 42 9 43 47 30 18
-6 50 -11 73 -10 47 1 40 5 -24 14 -70 9 -76 16 -56 59 l17 36 38 -30 c50 -41
141 -66 141 -40 0 6 -17 10 -37 10 -44 0 -96 29 -114 61 -10 20 -8 26 20 51
40 36 56 35 71 -1 6 -16 23 -40 38 -53 23 -21 23 -19 -6 21 -32 44 -40 71 -23
71 5 0 14 -13 21 -30 7 -16 19 -35 28 -42 9 -8 6 3 -9 30 -24 43 -24 43 -4 58
18 13 20 13 27 -3 3 -10 7 -29 7 -42z m914 5 c18 -7 43 -25 56 -40 l24 -26
-44 -2 c-24 0 -54 0 -67 1 -25 2 -55 -22 -44 -34 4 -5 1 -5 -5 -1 -7 4 -13 3
-13 -2 0 -5 -14 -8 -30 -7 -28 2 -29 0 -15 -15 25 -27 18 -47 -7 -23 -13 11
-32 23 -43 27 -24 7 -53 -8 -36 -18 6 -4 9 -11 6 -16 -3 -5 8 -17 25 -26 16
-10 30 -22 30 -26 0 -12 -8 -10 -35 8 -14 9 -25 12 -25 6 0 -5 14 -15 30 -22
32 -13 38 -27 16 -36 -48 -18 -152 99 -144 163 9 73 221 132 321 89z m57 -92
c0 -9 5 -12 12 -8 8 5 9 0 5 -15 -7 -27 1 -53 14 -45 5 3 6 17 3 32 -6 25 -5
26 10 11 11 -10 18 -35 20 -68 2 -43 -2 -55 -18 -68 -20 -15 -20 -15 8 -8 26
5 28 4 17 -9 -8 -9 -23 -17 -35 -17 -15 -1 -13 -3 8 -8 17 -3 29 -9 28 -13 -1
-5 -2 -13 -2 -19 0 -7 -9 -9 -22 -6 -20 6 -19 3 6 -17 21 -16 26 -25 17 -30
-7 -5 -20 -1 -29 6 -26 23 -42 30 -42 20 0 -5 16 -17 35 -28 27 -14 35 -25 35
-47 0 -27 0 -27 -30 -12 -50 26 -95 19 -139 -20 -21 -19 -41 -35 -43 -35 -5 0
-26 93 -33 149 -2 17 -7 40 -10 52 -5 16 1 28 27 51 l33 30 -33 -22 c-18 -12
-36 -20 -39 -17 -11 11 33 71 55 77 13 3 23 8 23 13 -2 22 1 27 20 38 15 8 19
8 15 0 -4 -6 -2 -11 4 -11 7 0 14 8 17 19 3 10 14 23 26 29 31 15 37 14 37 -4z
m-249 -51 c13 -16 12 -17 -3 -4 -10 7 -18 15 -18 17 0 8 8 3 21 -13z m-806
-205 c-16 -6 -45 -22 -64 -37 -60 -47 -76 -57 -67 -43 19 31 109 92 134 91
l27 -1 -30 -10z m1331 -90 c-30 -46 -61 -100 -70 -122 -22 -52 -102 -163 -128
-177 -109 -58 -188 4 -190 150 -1 110 48 170 120 145 32 -11 72 -83 72 -131 0
-18 4 -33 8 -33 11 0 53 46 82 90 26 40 140 160 152 160 4 0 -17 -37 -46 -82z"/>
<path d="M325 2180 c-3 -5 1 -10 9 -10 9 0 16 5 16 10 0 6 -4 10 -9 10 -6 0
-13 -4 -16 -10z"/>
<path d="M1334 2359 c-10 -17 13 -36 27 -22 12 12 4 33 -11 33 -5 0 -12 -5
-16 -11z"/>
<path d="M1488 2275 c-10 -13 -18 -27 -18 -32 0 -4 6 -1 13 8 7 9 17 18 24 20
7 2 9 9 5 15 -5 8 -13 4 -24 -11z"/>
<path d="M1500 2250 c0 -5 5 -10 10 -10 6 0 10 5 10 10 0 6 -4 10 -10 10 -5 0
-10 -4 -10 -10z"/>
<path d="M1457 2190 c-32 -10 -121 -79 -112 -88 3 -3 18 6 33 20 44 41 75 55
114 53 20 -2 45 3 55 11 16 12 14 13 -22 13 -22 0 -53 -5 -68 -9z"/>
<path d="M618 2477 c23 -5 42 -14 42 -18 0 -5 7 -6 15 -3 9 4 18 -2 23 -17 6
-15 11 -18 16 -11 15 25 28 12 22 -20 -6 -30 -5 -31 8 -13 15 19 15 18 16 -12
0 -17 -4 -35 -10 -38 -5 -3 -10 -11 -10 -17 0 -7 6 -6 15 2 8 7 15 21 15 31 0
10 5 21 10 24 6 4 8 10 5 15 -3 5 5 16 17 25 23 15 23 15 -9 9 -23 -5 -39 -1
-61 14 -29 22 -101 42 -137 41 -11 -1 -1 -6 23 -12z"/>
<path d="M658 2415 c-6 -30 -3 -43 8 -33 3 4 4 19 2 35 l-3 28 -7 -30z"/>
<path d="M800 2376 c0 -10 -9 -29 -20 -43 -22 -28 -25 -43 -9 -43 5 0 15 14
20 30 12 34 34 39 49 11 8 -16 5 -26 -15 -49 -27 -32 -31 -42 -16 -42 5 0 13
9 16 21 6 17 13 20 35 16 16 -4 35 0 46 8 18 13 17 14 -5 8 -14 -4 -22 -2 -18
3 3 5 -15 29 -39 54 -32 32 -44 39 -44 26z"/>
<path d="M810 2166 c-10 -13 -7 -13 18 -4 25 10 35 9 57 -6 51 -34 72 -138 40
-200 -18 -34 -10 -50 11 -22 9 13 14 45 14 91 0 42 5 76 12 83 9 9 9 12 -4 12
-8 0 -32 14 -53 30 -41 33 -76 38 -95 16z"/>
<path d="M802 2118 c-19 -19 -14 -33 6 -15 11 10 27 14 42 11 20 -5 22 -3 10
5 -20 14 -43 14 -58 -1z"/>
<path d="M810 2068 c1 -52 50 -75 74 -35 9 15 7 22 -13 38 -32 27 -61 25 -61
-3z"/>
<path d="M1006 1871 c-19 -21 -36 -75 -35 -111 1 -23 2 -23 10 5 4 17 11 42
14 58 3 15 14 36 25 47 11 11 16 20 12 20 -5 0 -16 -8 -26 -19z"/>
<path d="M696 1811 c-14 -32 -35 -99 -46 -147 -24 -109 -113 -674 -107 -680 5
-5 47 188 47 219 0 12 5 29 10 37 7 11 10 7 10 -18 0 -26 12 -47 53 -93 28
-32 69 -87 90 -121 20 -34 37 -56 37 -49 0 26 -71 148 -118 201 l-47 54 1 131
c2 157 31 329 73 440 17 43 29 80 27 82 -2 2 -15 -23 -30 -56z"/>
<path d="M771 1778 c-1 -79 3 -97 35 -178 38 -95 66 -137 33 -49 -19 49 -19
51 -2 44 83 -35 125 -47 179 -52 53 -5 65 -3 70 11 4 10 17 16 35 16 22 0 29
-5 29 -20 0 -11 5 -20 10 -20 6 0 10 16 10 35 0 33 -1 35 -21 24 -47 -25 -149
38 -149 91 0 10 -4 22 -10 25 -5 3 -10 -1 -10 -9 0 -24 -10 -20 -42 17 l-29
32 24 -44 c31 -55 82 -109 116 -124 25 -11 24 -12 -19 -15 -94 -7 -184 39
-219 113 -12 25 -25 79 -30 118 l-8 72 -2 -87z"/>
<path d="M1116 1789 c9 -10 25 -21 35 -24 23 -8 24 -33 4 -61 -18 -27 -11 -34
35 -34 41 0 60 14 60 45 0 18 -2 17 -13 -5 -9 -18 -19 -24 -37 -22 -14 2 -27
6 -29 7 -2 2 9 25 23 51 14 26 25 48 24 49 -2 2 -29 5 -61 7 -55 4 -56 4 -41
-13z"/>
<path d="M179 756 c8 -10 11 -54 9 -140 l-3 -126 78 0 c42 0 80 -1 84 -2 3 -2
8 7 10 20 3 22 2 22 -19 8 -12 -9 -42 -16 -65 -16 l-43 0 0 60 0 60 49 0 c30
0 51 -5 54 -12 3 -7 6 3 6 22 1 26 -2 31 -11 22 -7 -7 -31 -12 -55 -12 l-43 0
0 55 0 55 48 0 c26 0 53 -5 60 -12 9 -9 12 -7 12 10 0 21 -4 22 -91 22 -78 0
-90 -2 -80 -14z"/>
<path d="M419 763 c-13 -3 -16 -13 -13 -41 11 -118 12 -210 1 -221 -8 -8 -4
-11 19 -11 l29 0 -3 140 c-2 77 -6 139 -10 139 -4 -1 -14 -3 -23 -6z"/>
<path d="M596 745 c-7 -26 0 -31 19 -11 9 9 32 16 51 16 l34 0 0 -118 c0 -78
-4 -122 -12 -130 -9 -9 -4 -12 23 -12 l34 0 -3 130 -3 130 32 0 c18 0 41 -7
51 -17 17 -15 18 -15 18 8 l0 24 -119 0 c-111 0 -120 -2 -125 -20z"/>
<path d="M1659 760 c-14 -8 -15 -18 -7 -61 5 -29 8 -87 6 -130 -3 -73 -2 -79
17 -79 19 0 20 6 17 140 -2 77 -6 140 -10 140 -4 0 -14 -5 -23 -10z"/>
<path d="M830 639 c0 -18 3 -19 15 -9 8 7 25 10 39 6 22 -5 24 -11 25 -65 0
-45 -4 -61 -16 -65 -36 -14 -59 43 -25 63 15 9 15 10 0 11 -24 0 -48 -28 -48
-56 0 -32 38 -51 69 -34 16 8 26 8 35 1 9 -8 18 -7 31 3 16 12 16 13 1 19 -12
5 -16 20 -16 65 0 32 -5 63 -12 70 -7 7 -31 12 -55 12 -37 0 -43 -3 -43 -21z"/>
<path d="M983 651 c6 -11 54 -116 66 -146 l13 -30 22 52 c11 29 24 53 28 53 3
0 14 -23 23 -51 10 -28 21 -47 25 -42 5 4 20 37 35 73 15 36 31 70 36 76 7 8
1 13 -17 17 -16 3 -22 1 -16 -5 10 -10 -16 -108 -29 -108 -5 0 -16 25 -25 55
-10 30 -21 55 -24 55 -3 0 -14 -25 -24 -55 -9 -30 -21 -55 -25 -55 -8 0 -37
89 -34 101 1 4 -11 9 -28 11 -16 3 -28 2 -26 -1z"/>
<path d="M1292 637 c-14 -15 -22 -36 -22 -59 0 -50 8 -66 41 -83 38 -20 72
-19 92 3 16 17 14 18 -30 18 -40 -1 -49 3 -61 24 -12 20 -12 33 -3 68 11 39
15 43 39 40 19 -2 28 -10 30 -25 2 -15 10 -23 23 -23 25 0 24 15 -1 40 -28 28
-81 26 -108 -3z"/>
<path d="M1481 637 c-26 -29 -30 -86 -8 -120 25 -39 107 -48 120 -14 3 9 -6
11 -33 9 -32 -3 -41 0 -54 21 -17 25 -16 91 2 109 18 18 57 5 60 -19 2 -15 10
-23 22 -23 14 0 18 5 13 18 -16 47 -85 57 -122 19z"/>
<path d="M1750 639 c0 -18 3 -19 14 -9 26 20 61 8 64 -22 3 -25 0 -28 -27 -28
-34 0 -61 -22 -61 -50 0 -20 25 -50 41 -50 6 0 19 5 30 11 14 7 24 7 33 0 9
-8 18 -7 31 3 16 12 16 13 1 19 -12 5 -16 20 -16 65 0 32 -5 63 -12 70 -7 7
-31 12 -55 12 -37 0 -43 -3 -43 -21z m80 -99 c0 -36 -24 -50 -47 -27 -22 22
-8 57 23 57 20 0 24 -5 24 -30z"/>
<path d="M1338 593 c7 -3 16 -2 19 1 4 3 -2 6 -13 5 -11 0 -14 -3 -6 -6z"/>
<path d="M1523 593 c9 -2 23 -2 30 0 6 3 -1 5 -18 5 -16 0 -22 -2 -12 -5z"/>
<path d="M155 355 c0 -43 4 -75 10 -75 6 0 10 32 10 75 0 43 -4 75 -10 75 -6
0 -10 -32 -10 -75z"/>
<path d="M970 420 c0 -5 12 -8 28 -7 27 2 27 2 27 -66 0 -38 4 -67 10 -67 6 0
10 29 10 67 0 68 0 68 28 66 15 -1 27 2 27 7 0 5 -29 9 -65 9 -36 0 -65 -4
-65 -9z"/>
<path d="M1690 355 l0 -75 45 0 c25 0 45 4 45 8 0 4 -16 6 -36 4 l-35 -4 3 63
3 64 32 -1 c18 -1 30 2 27 7 -3 5 -23 9 -45 9 l-39 0 0 -75z"/>
<path d="M800 350 c0 -40 4 -70 10 -70 6 0 10 10 10 22 l0 21 25 -23 c14 -13
27 -21 30 -18 3 2 -4 13 -15 23 -24 22 -26 41 -4 49 9 4 14 9 10 13 -3 3 -15
-2 -26 -12 -20 -18 -20 -18 -20 23 0 23 -4 42 -10 42 -6 0 -10 -30 -10 -70z"/>
<path d="M1328 395 c4 -21 1 -25 -20 -25 -30 0 -48 -17 -48 -45 0 -25 18 -45
39 -45 12 0 11 3 -3 13 -24 18 -18 62 9 62 16 0 20 -7 21 -34 0 -20 6 -37 14
-39 9 -3 11 1 7 12 -4 10 -7 42 -7 72 0 30 -4 54 -9 54 -4 0 -6 -11 -3 -25z"/>
<path d="M556 372 c-8 -14 9 -85 22 -90 6 -2 12 1 12 7 0 6 -4 11 -10 11 -16
0 -11 42 6 55 15 11 15 12 -5 18 -11 3 -23 2 -25 -1z"/>
<path d="M1866 372 c-9 -15 10 -86 24 -90 12 -4 13 -2 3 9 -15 15 -18 73 -4
64 5 -3 12 -1 15 4 3 5 -3 11 -14 14 -11 3 -22 2 -24 -1z"/>
<path d="M300 365 c0 -11 34 -75 40 -75 6 0 40 64 40 75 0 3 -4 5 -9 5 -5 0
-12 -15 -16 -32 l-7 -33 -16 33 c-13 27 -32 43 -32 27z"/>
<path d="M401 348 c-12 -30 8 -62 40 -65 l24 -3 -23 10 c-29 12 -37 33 -22 59
7 15 7 21 0 21 -6 0 -15 -10 -19 -22z"/>
<path d="M446 356 c3 -9 11 -16 16 -16 13 0 5 23 -10 28 -7 2 -10 -2 -6 -12z"/>
<path d="M483 354 c-4 -11 2 -23 17 -34 15 -11 20 -22 15 -30 -5 -9 -4 -11 3
-6 19 11 14 34 -9 46 -12 7 -18 18 -15 26 3 8 3 14 0 14 -2 0 -7 -7 -11 -16z"/>
<path d="M616 349 c-16 -24 -8 -60 15 -67 11 -4 12 -2 2 9 -19 19 -16 56 5 68
9 6 12 11 5 11 -6 0 -19 -10 -27 -21z"/>
<path d="M672 347 c9 -22 9 -33 0 -48 -8 -12 -8 -19 -2 -19 6 0 14 10 19 22
l8 22 12 -22 c8 -15 20 -22 39 -21 l27 1 -25 7 c-19 5 -25 13 -25 36 0 26 4
30 28 30 15 -1 27 3 27 7 0 4 -13 8 -30 8 -19 0 -33 -7 -40 -20 -11 -21 -11
-21 -31 2 l-19 23 12 -28z"/>
<path d="M1119 366 c-7 -7 2 -86 10 -86 4 0 7 18 6 40 -1 38 -7 55 -16 46z"/>
<path d="M1155 360 c3 -5 8 -10 11 -10 2 0 4 5 4 10 0 6 -5 10 -11 10 -5 0 -7
-4 -4 -10z"/>
<path d="M1190 361 c0 -5 8 -8 18 -7 13 1 17 -7 17 -33 0 -19 6 -36 13 -39 11
-3 9 33 -4 76 -4 14 -44 17 -44 3z"/>
<path d="M1378 363 c-2 -5 -1 -26 3 -48 l6 -40 2 48 c1 44 -3 57 -11 40z"/>
<path d="M1418 363 c-2 -5 -1 -26 2 -48 l6 -40 5 43 c4 39 -4 65 -13 45z"/>
<path d="M1462 353 c9 -10 14 -30 13 -45 -2 -16 1 -28 6 -28 16 0 10 77 -7 84
-25 10 -28 7 -12 -11z"/>
<path d="M1521 361 c-8 -5 -11 -16 -6 -30 9 -30 20 -26 20 9 0 17 0 30 0 30 0
0 -6 -4 -14 -9z"/>
<path d="M1564 338 c1 -15 2 -28 3 -28 1 0 8 13 16 29 14 27 13 29 -3 28 -12
-1 -17 -9 -16 -29z"/>
<path d="M1793 353 c-4 -10 2 -23 16 -34 13 -11 19 -23 15 -30 -4 -8 -3 -9 4
-5 19 11 14 34 -9 46 -12 7 -18 18 -15 26 3 8 3 14 0 14 -2 0 -7 -7 -11 -17z"/>
<path d="M260 320 c0 -22 5 -40 10 -40 6 0 10 18 10 40 0 22 -4 40 -10 40 -5
0 -10 -18 -10 -40z"/>
<path d="M1184 315 c-7 -17 3 -35 18 -35 7 0 7 4 -1 13 -8 10 -7 17 1 25 9 9
9 12 0 12 -7 0 -15 -7 -18 -15z"/>
<path d="M225 290 c-3 -5 -2 -10 4 -10 5 0 13 5 16 10 3 6 2 10 -4 10 -5 0
-13 -4 -16 -10z"/>
<path d="M1507 279 c-3 -11 -1 -22 4 -25 5 -3 9 2 9 10 0 19 40 22 58 4 8 -8
12 -8 12 -1 0 33 -75 43 -83 12z"/>
</g>
</svg>
